<svg width="136" height="37" viewBox="0 0 136 37" fill="none" xmlns="http://www.w3.org/2000/svg">
<path d="M19.632 21.9838C18.9072 21.4788 18.3135 20.9326 17.8672 20.3398L17.953 20.5472C18.3763 20.9909 18.771 21.4722 19.1373 21.9907L19.3327 22.2673C19.4351 22.1757 19.5349 22.0812 19.632 21.9838Z" fill="#FE2C55"/>
<path d="M17.8594 20.4453L18.0604 20.794L17.9587 20.5482C17.9257 20.5136 17.8926 20.4794 17.8594 20.4453Z" fill="#FE2C55"/>
<path fill-rule="evenodd" clip-rule="evenodd" d="M21.7776 26.5571C22.4237 26.5571 22.9475 26.0333 22.9475 25.3872C22.9475 24.7411 22.4237 24.2173 21.7776 24.2173C21.1315 24.2173 20.6078 24.7411 20.6078 25.3872C20.6078 26.0333 21.1315 26.5571 21.7776 26.5571ZM21.7776 28.2588C23.3634 28.2588 24.649 26.9731 24.649 25.3872C24.649 23.8013 23.3634 22.5156 21.7776 22.5156C20.1918 22.5156 18.9062 23.8013 18.9062 25.3872C18.9062 26.9731 20.1918 28.2588 21.7776 28.2588Z" fill="#FE2C55"/>
<path fill-rule="evenodd" clip-rule="evenodd" d="M13.6956 26.5571C14.2054 26.5571 14.639 26.231 14.7992 25.776C14.8421 25.6544 14.8654 25.5235 14.8654 25.3872C14.8654 25.3017 14.8562 25.2182 14.8388 25.1379C14.7959 24.9404 14.7032 24.7615 14.5744 24.615C14.3601 24.3712 14.0458 24.2173 13.6956 24.2173C13.4751 24.2173 13.2689 24.2783 13.0928 24.3844C12.9028 24.4989 12.7479 24.6659 12.6483 24.8653C12.5699 25.0224 12.5258 25.1997 12.5258 25.3872C12.5258 25.4233 12.5274 25.4591 12.5306 25.4944C12.5847 26.0903 13.0857 26.5571 13.6956 26.5571ZM13.6956 28.2588C15.2814 28.2588 16.567 26.9731 16.567 25.3872C16.567 23.8013 15.2814 22.5156 13.6956 22.5156C12.1098 22.5156 10.8242 23.8013 10.8242 25.3872C10.8242 26.9731 12.1098 28.2588 13.6956 28.2588Z" fill="#FE2C55"/>
<path fill-rule="evenodd" clip-rule="evenodd" d="M19.6358 21.9813C18.911 21.4763 18.3174 20.9301 17.871 20.3374L17.9568 20.5447C17.9239 20.5103 17.8908 20.476 17.8576 20.442C17.4225 19.8571 17.0967 19.1527 16.8666 18.5439C16.6444 17.9563 16.4975 17.3769 16.4309 16.807L16.4304 16.8029L16.43 16.7989C16.3749 16.2691 16.3468 15.7749 16.3468 15.3171C16.3468 14.546 16.4203 13.8317 16.5729 13.1779L16.5734 13.1755L16.574 13.173C16.7294 12.5305 16.9335 11.9465 17.1902 11.4255L17.191 11.4239L17.1918 11.4223C17.4516 10.9027 17.7527 10.4412 18.0982 10.0431L18.1004 10.0405L18.1027 10.038C18.4447 9.6523 18.8086 9.3237 19.1961 9.05777C19.577 8.79637 19.9691 8.59449 20.3723 8.46006L20.3741 8.45948L20.3758 8.45891C20.7721 8.32933 21.1621 8.25781 21.5412 8.25781C22.1151 8.25781 22.65 8.41574 23.1315 8.72744C23.6029 9.02593 23.9919 9.44226 24.3059 9.95398C24.6272 10.4604 24.8657 11.053 25.031 11.72C25.2056 12.391 25.29 13.1194 25.29 13.9012C25.29 14.9236 25.1821 15.9268 24.966 16.9098L24.9658 16.9108C24.7497 17.8867 24.432 18.8163 24.0122 19.6982C23.5982 20.5751 23.0886 21.3838 22.4835 22.1226C21.8753 22.8652 21.1811 23.5101 20.4017 24.0557L20.4007 24.0564C19.6221 24.5993 18.7639 25.019 17.8291 25.3167C16.8892 25.6249 15.8852 25.7764 14.8214 25.7764C14.8148 25.7764 14.8083 25.7764 14.8017 25.7764C14.8446 25.6547 14.8679 25.5238 14.8679 25.3875C14.8679 25.302 14.8587 25.2186 14.8413 25.1382C15.671 25.1367 16.4552 25.0373 17.1939 24.84L17.1955 24.8396C17.3431 24.8001 17.4889 24.7568 17.6329 24.7095C17.926 24.6163 18.2104 24.5104 18.4864 24.392C19.0367 24.1558 19.5532 23.8695 20.0357 23.533C20.7669 23.0211 21.4182 22.4162 21.9899 21.7183C22.5615 21.0203 23.0434 20.2559 23.4355 19.425C23.8343 18.5875 24.1367 17.7034 24.3428 16.7728C24.5488 15.8356 24.6519 14.8784 24.6519 13.9012C24.6519 13.1634 24.5721 12.4887 24.4126 11.8772C24.2597 11.259 24.0437 10.7306 23.7645 10.2918C23.492 9.84648 23.1663 9.50415 22.7875 9.26486C22.7667 9.25139 22.7459 9.2383 22.7249 9.22557C22.6957 9.20784 22.6663 9.19083 22.6367 9.17453C22.6309 9.17135 22.6251 9.16821 22.6194 9.16509C22.2866 8.98566 21.9273 8.89594 21.5412 8.89594C21.2421 8.89594 20.9197 8.95244 20.5741 9.06544C20.386 9.12816 20.1978 9.2093 20.0097 9.30887C19.8589 9.38871 19.708 9.48039 19.5572 9.58392C19.2182 9.81657 18.8925 10.109 18.5801 10.4613C18.2743 10.8136 18.0018 11.2291 17.7626 11.7077C17.5299 12.1796 17.3405 12.7181 17.1943 13.3229C17.0547 13.9212 16.9849 14.5859 16.9849 15.3171C16.9849 15.7492 17.0115 16.2211 17.0646 16.7329C17.1245 17.2448 17.2574 17.7732 17.4634 18.3183C17.6695 18.8633 17.9753 19.4084 18.3807 19.9535C18.4761 20.0802 18.5799 20.2055 18.6919 20.3293C18.8331 20.4853 18.9874 20.6389 19.1548 20.7903L19.16 20.7949C19.4229 21.032 19.7181 21.2634 20.0457 21.489L20.3149 21.14C20.3112 21.1374 20.3075 21.1348 20.3037 21.1322C20.301 21.1302 20.2982 21.1283 20.2954 21.1263C20.2268 21.0777 20.1573 21.0237 20.087 20.9642C19.9184 20.8215 19.7451 20.6474 19.5671 20.442C19.4403 20.2918 19.3175 20.1239 19.1991 19.9384C19.0817 19.7546 18.9684 19.5536 18.8593 19.3353C18.6466 18.8966 18.4704 18.3848 18.3309 17.7998C18.1979 17.2082 18.1314 16.5402 18.1314 15.7957C18.1314 14.792 18.2345 13.8946 18.4405 13.1036C18.6466 12.3126 18.9124 11.6445 19.2381 11.0995C19.5695 10.5559 19.9373 10.1413 20.3414 9.85551L20.3448 9.85313C20.4816 9.75668 20.6177 9.6765 20.753 9.6126L20.756 9.61117C21.0206 9.48665 21.2824 9.42439 21.5412 9.42439C21.7871 9.42439 22.0297 9.5108 22.269 9.68363C22.3016 9.70564 22.3336 9.7291 22.3652 9.75403C22.5716 9.91729 22.7556 10.1431 22.9171 10.4314C23.1032 10.7571 23.2527 11.1659 23.3657 11.6578C23.4854 12.1431 23.5452 12.7081 23.5452 13.3528C23.5452 13.8514 23.5053 14.3965 23.4256 14.988C23.3524 15.573 23.2361 16.1779 23.0766 16.8027C22.9171 17.4209 22.7143 18.0457 22.4684 18.6772C22.2225 19.3021 21.9234 19.9069 21.5711 20.4919C21.2255 21.0702 20.83 21.6119 20.3847 22.1171C20.3471 22.1592 20.3091 22.2009 20.2707 22.2421C20.2372 22.278 20.2033 22.3136 20.1692 22.3489C19.7793 22.7517 19.3493 23.1099 18.8792 23.4233C18.6664 23.5651 18.4449 23.6954 18.2148 23.8141C17.9714 23.9396 17.7183 24.0522 17.4555 24.1518L17.4505 24.1537C17.3113 24.2063 17.1694 24.2553 17.0248 24.3007C16.3535 24.5134 15.619 24.6198 14.8214 24.6198C14.7395 24.6198 14.658 24.6183 14.5769 24.6154C14.3625 24.3715 14.0483 24.2176 13.6981 24.2176C13.4776 24.2176 13.2714 24.2786 13.0953 24.3847C13.0457 24.3706 12.9963 24.3559 12.947 24.3406C12.818 24.3004 12.6922 24.257 12.5696 24.2104C12.4263 24.1559 12.2876 24.0969 12.1532 24.0335C11.8696 23.8997 11.6058 23.7462 11.3618 23.5728C10.9032 23.2405 10.5376 22.8516 10.2651 22.4063C9.99255 21.9543 9.85629 21.4657 9.85629 20.9406C9.85629 20.6547 9.90282 20.3889 9.99587 20.1429C10.0889 19.897 10.2318 19.6876 10.4246 19.5148C10.624 19.3419 10.8732 19.2057 11.1723 19.106C11.4333 19.019 11.7399 18.9699 12.092 18.9588C12.1434 18.9572 12.1958 18.9564 12.2491 18.9564C12.6418 18.9564 13.0708 19.0138 13.536 19.1285L13.5375 19.1289C13.5599 19.1344 13.5824 19.14 13.605 19.1458C14.0969 19.2721 14.602 19.4815 15.1205 19.774C15.1729 19.8036 15.2254 19.8341 15.2779 19.8655L15.2802 19.8669C15.746 20.1459 16.2146 20.4971 16.6858 20.9206C16.7378 20.9674 16.7896 21.0152 16.8412 21.0641C17.3101 21.5082 17.7601 22.0387 18.1913 22.6555L18.1916 22.6553L18.62 22.3564L18.6197 22.356C18.496 22.1809 18.3689 22.0103 18.2386 21.8444C17.9141 21.4313 17.5693 21.0469 17.2042 20.6913C17.1486 20.6371 17.0924 20.5837 17.0358 20.5312C16.5719 20.1011 16.0764 19.729 15.5492 19.4151C15.4928 19.3811 15.4361 19.3479 15.3792 19.3154C14.8592 19.0192 14.3135 18.7846 13.7422 18.6116C13.7358 18.6097 13.7293 18.6078 13.7229 18.6058C13.7135 18.603 13.7042 18.6002 13.6948 18.5975C13.2269 18.4576 12.745 18.3684 12.2491 18.3301C12.2001 18.3263 12.1509 18.323 12.1016 18.3202C11.9624 18.3123 11.8222 18.3083 11.6808 18.3083C11.3086 18.3083 10.9464 18.3548 10.5941 18.4479C10.2418 18.5343 9.92608 18.6805 9.64692 18.8866C9.37441 19.0927 9.15506 19.3652 8.9889 19.7042C8.82273 20.0432 8.73965 20.4653 8.73965 20.9705C8.73965 21.5089 8.89252 22.0307 9.19827 22.5359C9.50402 23.0344 9.92608 23.4765 10.4645 23.862C10.8822 24.1612 11.362 24.4143 11.9039 24.6214C12.0603 24.6812 12.2219 24.7372 12.3887 24.7893C12.4752 24.8163 12.5626 24.8418 12.6508 24.8657C12.5724 25.0228 12.5283 25.2 12.5283 25.3875C12.5283 25.4236 12.5299 25.4594 12.5331 25.4947C12.4204 25.465 12.3088 25.4329 12.1984 25.3984C11.4004 25.149 10.6954 24.8122 10.093 24.3808C9.49447 23.9522 9.01015 23.4497 8.65434 22.8695L8.65336 22.8679L8.65239 22.8663C8.29235 22.2714 8.10156 21.6365 8.10156 20.9705C8.10156 20.3993 8.19497 19.8741 8.41595 19.4233C8.62141 19.0042 8.90179 18.65 9.26209 18.3776L9.26503 18.3754L9.26799 18.3732C9.61658 18.1159 10.0083 17.9353 10.4365 17.8295C10.8414 17.7231 11.2567 17.6702 11.6808 17.6702C12.438 17.6702 13.1708 17.7749 13.8768 17.9859C14.5795 18.1939 15.2466 18.488 15.8769 18.8675C16.5126 19.2463 17.1035 19.7024 17.6494 20.2342C17.7196 20.3025 17.789 20.3718 17.8576 20.442L18.0583 20.7903L17.9568 20.5447C18.3801 20.9884 18.7748 21.4698 19.1411 21.9882L19.3365 22.2648C19.4389 22.1732 19.5387 22.0787 19.6358 21.9813ZM21.8742 18.4446C22.1113 17.8359 22.3058 17.2358 22.4585 16.6442C22.612 16.0431 22.7229 15.4648 22.7924 14.9089L22.7928 14.9058L22.7932 14.9028C22.8698 14.3341 22.9071 13.818 22.9071 13.3528C22.9071 12.7455 22.8506 12.2339 22.7462 11.8106L22.745 11.8057L22.7438 11.8007C22.6403 11.3502 22.5096 11.0044 22.3631 10.748L22.3617 10.7456L22.3603 10.7432C22.2095 10.4739 22.0552 10.3093 21.9118 10.2124L21.9035 10.2068L21.8954 10.2009C21.7426 10.0906 21.6279 10.0625 21.5412 10.0625C21.3118 10.0625 21.0389 10.1445 20.7124 10.3747C20.3962 10.5976 20.0833 10.9396 19.7844 11.4293C19.4978 11.9096 19.2526 12.5174 19.058 13.2644C18.8683 13.9926 18.7695 14.8344 18.7695 15.7957C18.7695 16.5015 18.8325 17.1201 18.9525 17.6558C19.0832 18.2023 19.2444 18.6663 19.4317 19.0534C19.6325 19.4545 19.8406 19.7763 20.0521 20.0273C20.2869 20.2978 20.4964 20.4891 20.6789 20.6159L20.7189 20.6437C20.8246 20.487 20.9261 20.3273 21.0234 20.1645L21.0245 20.1627C21.3585 19.608 21.6416 19.0354 21.8742 18.4446ZM10.8466 19.9935C10.7331 20.0962 10.6495 20.2186 10.5927 20.3688C10.5292 20.5365 10.4944 20.7252 10.4944 20.9406C10.4944 21.3483 10.5983 21.7224 10.8104 22.075C11.0348 22.4411 11.3393 22.7681 11.7337 23.0543C12.131 23.3361 12.5965 23.5633 13.1366 23.7313C13.671 23.8975 14.2317 23.9817 14.8214 23.9817C15.5621 23.9817 16.2307 23.8829 16.832 23.6924L16.8338 23.6918C17.1929 23.5791 17.5319 23.4428 17.8513 23.283L17.6683 23.0211C17.2127 22.3693 16.7423 21.8294 16.2593 21.3952C15.7626 20.9488 15.2782 20.5956 14.807 20.3298C14.3291 20.0602 13.8758 19.8742 13.4463 19.7639C12.9949 19.648 12.597 19.5945 12.2491 19.5945C11.8779 19.5945 11.5908 19.6391 11.3741 19.7114C11.1418 19.7888 10.9713 19.8864 10.8466 19.9935Z" fill="#FE2C55"/>
<path fill-rule="evenodd" clip-rule="evenodd" d="M18.3832 19.956C18.7887 20.4944 19.3437 21.0062 20.0482 21.4915L20.3174 21.1425C20.0782 20.9763 19.8289 20.7437 19.5697 20.4445C19.3171 20.1454 19.0811 19.7765 18.8618 19.3378C18.6491 18.8991 18.473 18.3872 18.3334 17.8023C18.2005 17.2107 18.134 16.5427 18.134 15.7982C18.134 14.7945 18.237 13.8971 18.4431 13.1061C18.6491 12.3151 18.915 11.647 19.2407 11.102C19.573 10.5569 19.9419 10.1415 20.3473 9.85563C20.7528 9.5698 21.1516 9.42689 21.5437 9.42689C21.7897 9.42689 22.0323 9.5133 22.2716 9.68612C22.5175 9.8523 22.7335 10.1016 22.9196 10.4339C23.1057 10.7596 23.2553 11.1684 23.3683 11.6603C23.4879 12.1456 23.5477 12.7106 23.5477 13.3553C23.5477 13.8539 23.5079 14.399 23.4281 14.9905C23.355 15.5755 23.2386 16.1804 23.0791 16.8052C22.9196 17.4234 22.7169 18.0482 22.471 18.6797C22.225 19.3046 21.9259 19.9094 21.5737 20.4944C21.228 21.0727 20.8326 21.6144 20.3872 22.1196C19.9419 22.6182 19.4401 23.0535 18.8817 23.4258C18.3234 23.798 17.7053 24.0905 17.0273 24.3032C16.356 24.5159 15.6215 24.6223 14.8239 24.6223C14.742 24.6223 14.6605 24.6208 14.5795 24.6178C14.7082 24.7643 14.801 24.9432 14.8438 25.1407C15.84 25.1388 16.7705 24.9959 17.6355 24.712C18.5128 24.4328 19.3138 24.0406 20.0383 23.5355C20.7694 23.0236 21.4208 22.4187 21.9924 21.7208C22.564 21.0228 23.0459 20.2584 23.4381 19.4275C23.8369 18.59 24.1393 17.7059 24.3453 16.7753C24.5514 15.8381 24.6544 14.8809 24.6544 13.9037C24.6544 13.1659 24.5746 12.4912 24.4151 11.8797C24.2623 11.2615 24.0462 10.7331 23.7671 10.2943C23.4946 9.84898 23.1689 9.50665 22.79 9.26736C22.4111 9.02141 21.9957 8.89844 21.5437 8.89844C21.2446 8.89844 20.9223 8.95494 20.5766 9.06794C20.2377 9.18094 19.8987 9.35377 19.5597 9.58642C19.2207 9.81907 18.895 10.1115 18.5826 10.4638C18.2769 10.8161 18.0044 11.2316 17.7651 11.7102C17.5325 12.1821 17.343 12.7206 17.1968 13.3254C17.0572 13.9237 16.9874 14.5884 16.9874 15.3196C16.9874 15.7517 17.014 16.2236 17.0672 16.7354C17.127 17.2473 17.2599 17.7757 17.466 18.3208C17.672 18.8658 17.9778 19.4109 18.3832 19.956ZM12.6534 24.8681C12.7529 24.6687 12.9078 24.5017 13.0979 24.3872C13.0483 24.3731 12.9988 24.3584 12.9495 24.3431C12.3514 24.157 11.8229 23.901 11.3643 23.5753C10.9057 23.243 10.5401 22.8541 10.2676 22.4088C9.99509 21.9568 9.85883 21.4682 9.85883 20.9431C9.85883 20.6572 9.90536 20.3913 9.99842 20.1454C10.0915 19.8995 10.2344 19.6901 10.4271 19.5173C10.6265 19.3444 10.8758 19.2082 11.1749 19.1085C11.474 19.0087 11.8329 18.9589 12.2516 18.9589C12.6637 18.9589 13.1157 19.0221 13.6076 19.1483C14.0994 19.2746 14.6046 19.484 15.123 19.7765C15.6415 20.069 16.1632 20.4512 16.6883 20.9231C17.2134 21.3951 17.7152 21.9734 18.1938 22.658L18.6225 22.3589C18.1905 21.7474 17.7186 21.1923 17.2068 20.6938C16.695 20.1953 16.1433 19.7699 15.5517 19.4175C14.9668 19.0653 14.3487 18.7927 13.6973 18.6C13.0526 18.4072 12.3813 18.3108 11.6834 18.3108C11.3111 18.3108 10.9489 18.3573 10.5966 18.4504C10.2443 18.5368 9.92862 18.683 9.64946 18.8891C9.37695 19.0952 9.15761 19.3677 8.99144 19.7067C8.82527 20.0457 8.74219 20.4678 8.74219 20.973C8.74219 21.5114 8.89506 22.0332 9.20081 22.5384C9.50656 23.0369 9.92862 23.479 10.467 23.8645C11.0054 24.25 11.6468 24.5591 12.3912 24.7918C12.4777 24.8188 12.5651 24.8443 12.6534 24.8681Z" fill="#FE2C55"/>
<path d="M118.486 28.2583V16.0714H120.427L120.665 17.2799C120.937 16.9055 121.295 16.5764 121.737 16.2927C122.191 16.009 122.776 15.8672 123.49 15.8672C124.285 15.8672 124.994 16.0601 125.618 16.4459C126.242 16.8317 126.736 17.3593 127.099 18.0288C127.462 18.6983 127.643 19.4586 127.643 20.3096C127.643 21.1606 127.462 21.9209 127.099 22.5904C126.736 23.2485 126.242 23.7705 125.618 24.1563C124.994 24.5307 124.285 24.718 123.49 24.718C122.855 24.718 122.299 24.5988 121.822 24.3605C121.346 24.1223 120.96 23.7875 120.665 23.3563V28.2583H118.486ZM123.031 22.8117C123.723 22.8117 124.296 22.579 124.75 22.1138C125.204 21.6486 125.431 21.0472 125.431 20.3096C125.431 19.572 125.204 18.965 124.75 18.4884C124.296 18.0118 123.723 17.7735 123.031 17.7735C122.327 17.7735 121.749 18.0118 121.295 18.4884C120.852 18.9536 120.631 19.555 120.631 20.2926C120.631 21.0301 120.852 21.6372 121.295 22.1138C121.749 22.579 122.327 22.8117 123.031 22.8117Z" fill="white"/>
<path d="M113.065 24.718C112.248 24.718 111.511 24.5307 110.853 24.1563C110.206 23.7818 109.69 23.2655 109.304 22.6074C108.929 21.9379 108.742 21.1663 108.742 20.2926C108.742 19.4189 108.935 18.6529 109.321 17.9948C109.707 17.3253 110.223 16.8033 110.87 16.4289C111.528 16.0544 112.265 15.8672 113.082 15.8672C113.888 15.8672 114.614 16.0544 115.261 16.4289C115.919 16.8033 116.436 17.3253 116.81 17.9948C117.196 18.6529 117.389 19.4189 117.389 20.2926C117.389 21.1663 117.196 21.9379 116.81 22.6074C116.436 23.2655 115.919 23.7818 115.261 24.1563C114.603 24.5307 113.871 24.718 113.065 24.718ZM113.065 22.8287C113.633 22.8287 114.126 22.6188 114.546 22.1989C114.966 21.7677 115.176 21.1323 115.176 20.2926C115.176 19.4529 114.966 18.8231 114.546 18.4033C114.126 17.9721 113.638 17.7565 113.082 17.7565C112.504 17.7565 112.004 17.9721 111.585 18.4033C111.176 18.8231 110.972 19.4529 110.972 20.2926C110.972 21.1323 111.176 21.7677 111.585 22.1989C112.004 22.6188 112.498 22.8287 113.065 22.8287Z" fill="white"/>
<path d="M99.5098 24.5128V12.2578H101.688V17.364C101.972 16.8988 102.352 16.5357 102.829 16.2747C103.317 16.0024 103.873 15.8662 104.497 15.8662C105.541 15.8662 106.346 16.1953 106.914 16.8534C107.492 17.5115 107.782 18.4761 107.782 19.7469V24.5128H105.62V19.9512C105.62 19.225 105.473 18.669 105.178 18.2832C104.894 17.8974 104.44 17.7045 103.816 17.7045C103.203 17.7045 102.693 17.92 102.284 18.3512C101.887 18.7824 101.688 19.3838 101.688 20.1554V24.5128H99.5098Z" fill="white"/>
<path d="M94.3236 24.7176C93.4498 24.7176 92.6782 24.57 92.0087 24.275C91.3393 23.9686 90.8116 23.5374 90.4258 22.9814C90.04 22.4141 89.8414 21.7276 89.8301 20.9219H92.1279C92.1506 21.4779 92.3491 21.9488 92.7236 22.3347C93.1094 22.7091 93.6371 22.8963 94.3065 22.8963C94.8852 22.8963 95.3448 22.7602 95.6852 22.4878C96.0256 22.2042 96.1958 21.8297 96.1958 21.3645C96.1958 20.8765 96.0427 20.4964 95.7363 20.2241C95.4413 19.9517 95.0441 19.7305 94.5448 19.5603C94.0455 19.3901 93.5122 19.2085 92.9449 19.0156C92.0258 18.6979 91.3222 18.2894 90.8343 17.7901C90.3577 17.2908 90.1194 16.627 90.1194 15.7987C90.1081 15.0952 90.2726 14.4938 90.613 13.9945C90.9648 13.4839 91.4414 13.0924 92.0428 12.82C92.6442 12.5364 93.3364 12.3945 94.1193 12.3945C94.9136 12.3945 95.6115 12.5364 96.2129 12.82C96.8256 13.1037 97.3022 13.5009 97.6426 14.0115C97.9944 14.5221 98.1816 15.1292 98.2043 15.8327H95.8724C95.8611 15.4129 95.6966 15.0441 95.3788 14.7264C95.0725 14.3973 94.6413 14.2328 94.0853 14.2328C93.6087 14.2214 93.2059 14.3406 92.8768 14.5902C92.5591 14.8285 92.4002 15.1803 92.4002 15.6455C92.4002 16.0426 92.525 16.3604 92.7747 16.5987C93.0243 16.8256 93.3647 17.0185 93.7959 17.1774C94.2271 17.3362 94.7207 17.5064 95.2767 17.688C95.8668 17.8922 96.4058 18.1305 96.8937 18.4029C97.3816 18.6752 97.7731 19.0383 98.0681 19.4922C98.3631 19.9347 98.5107 20.5078 98.5107 21.2113C98.5107 21.8354 98.3518 22.4141 98.0341 22.9474C97.7164 23.4807 97.2455 23.9119 96.6214 24.241C95.9973 24.5587 95.2313 24.7176 94.3236 24.7176Z" fill="white"/>
<path d="M84.1424 24.718C83.4162 24.718 82.8205 24.6045 82.3552 24.3776C81.89 24.1393 81.5439 23.8272 81.317 23.4414C81.09 23.0556 80.9766 22.6301 80.9766 22.1649C80.9766 21.3819 81.2829 20.7465 81.8957 20.2585C82.5084 19.7706 83.4275 19.5266 84.653 19.5266H86.7977V19.3224C86.7977 18.7437 86.6331 18.3182 86.3041 18.0458C85.975 17.7735 85.5665 17.6373 85.0786 17.6373C84.636 17.6373 84.2502 17.7451 83.9212 17.9607C83.5921 18.165 83.3878 18.4714 83.3084 18.8799H81.1808C81.2375 18.2671 81.4418 17.7338 81.7936 17.2799C82.1567 16.826 82.6219 16.4799 83.1893 16.2416C83.7566 15.992 84.3921 15.8672 85.0956 15.8672C86.2984 15.8672 87.2459 16.1679 87.938 16.7693C88.6302 17.3707 88.9763 18.2217 88.9763 19.3224V24.5137H87.1211L86.9168 23.1521C86.6672 23.606 86.3154 23.9804 85.8615 24.2754C85.419 24.5705 84.8459 24.718 84.1424 24.718ZM84.636 23.0159C85.2601 23.0159 85.7424 22.8117 86.0828 22.4032C86.4345 21.9947 86.6558 21.4897 86.7466 20.8883H84.8913C84.3126 20.8883 83.8985 20.9961 83.6488 21.2117C83.3992 21.416 83.2744 21.6713 83.2744 21.9776C83.2744 22.3067 83.3992 22.562 83.6488 22.7436C83.8985 22.9251 84.2275 23.0159 84.636 23.0159Z" fill="white"/>
<path d="M78.681 24.5146C77.7959 24.5146 77.0867 24.299 76.5534 23.8679C76.0201 23.4367 75.7534 22.6707 75.7534 21.5701V17.8936H74.3066V16.0724H75.7534L76.0087 13.8086H77.9321V16.0724H80.2128V17.8936H77.9321V21.5871C77.9321 21.9956 78.0172 22.2793 78.1874 22.4381C78.3689 22.5856 78.6753 22.6594 79.1065 22.6594H80.1618V24.5146H78.681Z" fill="white"/>
<path d="M70.5836 24.718C69.8347 24.718 69.1765 24.5988 68.6092 24.3605C68.0418 24.1109 67.5879 23.7705 67.2475 23.3393C66.9071 22.9081 66.7028 22.4088 66.6348 21.8415H68.8304C68.8985 22.1705 69.0801 22.4542 69.3751 22.6925C69.6815 22.9195 70.073 23.0329 70.5495 23.0329C71.0261 23.0329 71.3722 22.9365 71.5878 22.7436C71.8147 22.5507 71.9282 22.3294 71.9282 22.0798C71.9282 21.7167 71.7694 21.4727 71.4516 21.3479C71.1339 21.2117 70.6914 21.0812 70.124 20.9564C69.7609 20.877 69.3921 20.7805 69.0177 20.667C68.6432 20.5536 68.2971 20.4117 67.9794 20.2415C67.673 20.06 67.4234 19.833 67.2305 19.5607C67.0376 19.277 66.9411 18.9309 66.9411 18.5224C66.9411 17.7735 67.2362 17.1437 67.8262 16.6331C68.4276 16.1225 69.2673 15.8672 70.3453 15.8672C71.3438 15.8672 72.1381 16.0998 72.7282 16.565C73.3296 17.0303 73.687 17.6714 73.8005 18.4884H71.741C71.6162 17.8643 71.1453 17.5522 70.3283 17.5522C69.9198 17.5522 69.6021 17.6317 69.3751 17.7905C69.1595 17.9494 69.0517 18.148 69.0517 18.3863C69.0517 18.6359 69.2162 18.8345 69.5453 18.982C69.8744 19.1295 70.3112 19.2657 70.8559 19.3905C71.446 19.5266 71.985 19.6798 72.4729 19.85C72.9722 20.0089 73.3693 20.2529 73.6643 20.5819C73.9594 20.8997 74.1069 21.3592 74.1069 21.9606C74.1182 22.4826 73.9821 22.9535 73.6984 23.3733C73.4147 23.7932 73.0062 24.1223 72.4729 24.3605C71.9396 24.5988 71.3098 24.718 70.5836 24.718Z" fill="white"/>
<path d="M57.5898 24.5137V16.0714H59.5132L59.6834 17.5012C59.9444 17.0019 60.3188 16.6048 60.8068 16.3097C61.306 16.0147 61.8904 15.8672 62.5599 15.8672C63.6038 15.8672 64.4152 16.1963 64.9939 16.8544C65.5726 17.5125 65.8619 18.477 65.8619 19.7479V24.5137H63.6833V19.9522C63.6833 19.2259 63.5358 18.6699 63.2407 18.2841C62.9457 17.8983 62.4861 17.7054 61.862 17.7054C61.2493 17.7054 60.7444 17.921 60.3472 18.3522C59.9614 18.7834 59.7685 19.3848 59.7685 20.1564V24.5137H57.5898Z" fill="white"/>
<path d="M54.0039 24.5122V12.5977H56.1826V24.5122H54.0039Z" fill="white"/>
<path d="M46.3332 28.2572L48.4268 23.6956H47.9332L44.5801 16.0703H46.129L48.9204 22.6403L51.882 16.0703H53.3628L47.831 28.2572H46.3332Z" fill="white"/>
<path d="M31.2891 24.5137V16.0714H32.5826L32.6848 17.2969C32.9571 16.843 33.3202 16.4913 33.7741 16.2416C34.228 15.992 34.7386 15.8672 35.306 15.8672C35.9754 15.8672 36.5485 16.0034 37.0251 16.2757C37.513 16.548 37.8874 16.9622 38.1484 17.5182C38.4435 17.0076 38.8463 16.6048 39.3569 16.3097C39.8789 16.0147 40.4406 15.8672 41.042 15.8672C42.0518 15.8672 42.8575 16.1736 43.4589 16.7863C44.0603 17.3877 44.361 18.3182 44.361 19.5777V24.5137H42.9483V19.7309C42.9483 18.8572 42.7724 18.199 42.4206 17.7565C42.0689 17.314 41.5639 17.0927 40.9058 17.0927C40.225 17.0927 39.6576 17.3593 39.2037 17.8927C38.7612 18.4146 38.5399 19.1635 38.5399 20.1394V24.5137H37.1102V19.7309C37.1102 18.8572 36.9343 18.199 36.5825 17.7565C36.2308 17.314 35.7258 17.0927 35.0677 17.0927C34.3982 17.0927 33.8365 17.3593 33.3826 17.8927C32.9401 18.4146 32.7188 19.1635 32.7188 20.1394V24.5137H31.2891Z" fill="white"/>
</svg>
