<svg width="194" height="36" viewBox="0 0 194 36" fill="none" xmlns="http://www.w3.org/2000/svg">
<path d="M21.3081 24.3602C20.0224 23.4646 18.9695 22.4957 18.1777 21.4443L18.3299 21.8122C19.0808 22.5991 19.7809 23.4529 20.4306 24.3725L20.7772 24.8631C20.9588 24.7007 21.1358 24.5331 21.3081 24.3602Z" fill="white"/>
<path d="M18.168 21.6318L18.524 22.2495L18.3438 21.814C18.2855 21.7529 18.2269 21.6922 18.168 21.6318Z" fill="white"/>
<path fill-rule="evenodd" clip-rule="evenodd" d="M25.1106 32.4712C26.2566 32.4712 27.1856 31.5422 27.1856 30.3961C27.1856 29.2501 26.2566 28.321 25.1106 28.321C23.9647 28.321 23.0357 29.2501 23.0357 30.3961C23.0357 31.5422 23.9647 32.4712 25.1106 32.4712ZM25.1106 35.4895C27.9234 35.4895 30.2037 33.2091 30.2037 30.3961C30.2037 27.5831 27.9234 25.3027 25.1106 25.3027C22.2978 25.3027 20.0176 27.5831 20.0176 30.3961C20.0176 33.2091 22.2978 35.4895 25.1106 35.4895Z" fill="white"/>
<path fill-rule="evenodd" clip-rule="evenodd" d="M10.7747 32.4712C11.6789 32.4712 12.448 31.8928 12.7323 31.0858C12.8083 30.8701 12.8496 30.6379 12.8496 30.3961C12.8496 30.2444 12.8333 30.0964 12.8024 29.954C12.7264 29.6036 12.5619 29.2863 12.3335 29.0265C11.9533 28.594 11.3959 28.321 10.7747 28.321C10.3836 28.321 10.0178 28.4292 9.70553 28.6174C9.3684 28.8205 9.09372 29.1167 8.91712 29.4705C8.77803 29.7491 8.69974 30.0635 8.69974 30.3961C8.69974 30.4602 8.70265 30.5236 8.70835 30.5862C8.80432 31.6432 9.69281 32.4712 10.7747 32.4712ZM10.7747 35.4895C13.5875 35.4895 15.8677 33.2091 15.8677 30.3961C15.8677 27.5831 13.5875 25.3027 10.7747 25.3027C7.96189 25.3027 5.68164 27.5831 5.68164 30.3961C5.68164 33.2091 7.96189 35.4895 10.7747 35.4895Z" fill="white"/>
<path fill-rule="evenodd" clip-rule="evenodd" d="M21.3141 24.3603C20.0285 23.4646 18.9755 22.4958 18.1838 21.4444L18.3359 21.8122C18.2776 21.7511 18.219 21.6904 18.1601 21.6301C17.3883 20.5926 16.8104 19.3432 16.4023 18.2633C16.0082 17.221 15.7476 16.1934 15.6294 15.1825L15.6286 15.1753L15.6278 15.1681C15.5302 14.2285 15.4803 13.3518 15.4803 12.5398C15.4803 11.1721 15.6107 9.90512 15.8813 8.74553L15.8823 8.74115L15.8834 8.73673C16.1589 7.59706 16.5209 6.56125 16.9763 5.63724L16.9777 5.63437L16.9792 5.6315C17.4399 4.7099 17.974 3.89126 18.5868 3.18512L18.5908 3.18056L18.5948 3.17604C19.2013 2.49199 19.8469 1.90916 20.5342 1.43747C21.2098 0.973802 21.9052 0.615733 22.6205 0.377289L22.6236 0.376255L22.6267 0.375238C23.3297 0.145407 24.0212 0.0185547 24.6938 0.0185547C25.7117 0.0185547 26.6605 0.298674 27.5146 0.851542C28.3506 1.38099 29.0407 2.11944 29.5975 3.02709C30.1675 3.9253 30.5905 4.97638 30.8838 6.15959C31.1935 7.34967 31.343 8.6417 31.343 10.0285C31.343 11.8419 31.1517 13.6212 30.7684 15.3649L30.768 15.3665C30.3848 17.0976 29.8212 18.7464 29.0766 20.3107C28.3423 21.8662 27.4385 23.3004 26.3651 24.611C25.2864 25.9282 24.055 27.072 22.6725 28.0398L22.6708 28.041C21.2899 29.0039 19.7676 29.7483 18.1095 30.2764C16.4423 30.8231 14.6615 31.0918 12.7746 31.0918C12.763 31.0918 12.7514 31.0918 12.7398 31.0917C12.8158 30.8759 12.8571 30.6438 12.8571 30.402C12.8571 30.2503 12.8408 30.1023 12.8099 29.9599C14.2816 29.9571 15.6726 29.7808 16.9829 29.4309L16.9856 29.4301C17.2475 29.3602 17.5061 29.2833 17.7616 29.1994C18.2813 29.034 18.7859 28.8463 19.2753 28.6363C20.2515 28.2172 21.1676 27.7094 22.0235 27.1125C23.3203 26.2047 24.4757 25.1318 25.4896 23.8938C26.5034 22.6558 27.3582 21.2999 28.0538 19.8262C28.7611 18.3406 29.2975 16.7725 29.663 15.1218C30.0285 13.4594 30.2112 11.7616 30.2112 10.0285C30.2112 8.71976 30.0698 7.52304 29.7868 6.43833C29.5157 5.34186 29.1325 4.40453 28.6373 3.62637C28.154 2.83642 27.5763 2.22923 26.9043 1.80478C26.8675 1.7809 26.8305 1.75767 26.7933 1.7351C26.7415 1.70365 26.6894 1.67347 26.6368 1.64456C26.6266 1.63893 26.6164 1.63335 26.6061 1.62782C26.016 1.30955 25.3785 1.15042 24.6938 1.15042C24.1632 1.15042 23.5914 1.25063 22.9784 1.45107C22.6447 1.56231 22.311 1.70624 21.9773 1.88285C21.7097 2.02446 21.4422 2.18707 21.1746 2.37071C20.5733 2.78337 19.9957 3.30214 19.4415 3.92703C18.8992 4.55189 18.4159 5.28881 17.9915 6.13771C17.5788 6.9748 17.2428 7.92983 16.9835 9.00272C16.7359 10.0638 16.6121 11.2429 16.6121 12.5398C16.6121 13.3062 16.6592 14.1433 16.7535 15.0511C16.8597 15.959 17.0955 16.8963 17.4609 17.8631C17.8264 18.8299 18.3687 19.7967 19.0879 20.7635C19.2572 20.9883 19.4412 21.2105 19.6399 21.4301C19.8902 21.7068 20.1639 21.9793 20.4609 22.2477L20.4701 22.256C20.9364 22.6765 21.4601 23.0869 22.0411 23.487L22.5186 22.8681C22.512 22.8635 22.5054 22.8589 22.4988 22.8542C22.4939 22.8508 22.489 22.8473 22.4841 22.8438C22.3623 22.7576 22.239 22.6617 22.1143 22.5562C21.8153 22.3031 21.508 21.9944 21.1923 21.6301C20.9672 21.3635 20.7496 21.0657 20.5394 20.7367C20.3312 20.4108 20.1303 20.0542 19.9367 19.667C19.5594 18.8888 19.247 17.981 18.9995 16.9435C18.7637 15.8941 18.6457 14.7092 18.6457 13.3887C18.6457 11.6084 18.8285 10.0167 19.194 8.61363C19.5594 7.2106 20.031 6.02569 20.6087 5.05889C21.1965 4.09477 21.8489 3.35929 22.5657 2.85244L22.5717 2.84821C22.8143 2.67714 23.0556 2.53493 23.2957 2.42158L23.301 2.41904C23.7704 2.19818 24.2347 2.08774 24.6938 2.08774C25.13 2.08774 25.5603 2.24101 25.9847 2.54756C26.0425 2.5866 26.0993 2.62822 26.1552 2.67244C26.5215 2.96202 26.8478 3.36253 27.1342 3.87398C27.4643 4.45169 27.7296 5.1768 27.93 6.04927C28.1422 6.90994 28.2483 7.91213 28.2483 9.05577C28.2483 9.94006 28.1776 10.9069 28.0361 11.9562C27.9064 12.9937 27.7001 14.0666 27.4171 15.1749C27.1342 16.2714 26.7746 17.3797 26.3384 18.4998C25.9022 19.6081 25.3717 20.681 24.7468 21.7185C24.1337 22.7443 23.4323 23.7051 22.6424 24.6012C22.5757 24.6759 22.5083 24.7497 22.4401 24.8228C22.3807 24.8866 22.3207 24.9497 22.2602 25.0123C21.5686 25.7269 20.8058 26.3622 19.9721 26.918C19.5947 27.1696 19.2018 27.4007 18.7936 27.6112C18.3619 27.8339 17.913 28.0335 17.4468 28.2102L17.438 28.2135C17.1911 28.3069 16.9393 28.3938 16.6828 28.4743C15.4921 28.8516 14.1894 29.0403 12.7746 29.0403C12.6293 29.0403 12.4848 29.0377 12.341 29.0324C11.9608 28.5999 11.4034 28.3269 10.7822 28.3269C10.3911 28.3269 10.0253 28.4351 9.71303 28.6232C9.62505 28.5983 9.53734 28.5722 9.44997 28.5451C9.22108 28.4738 8.99793 28.3969 8.78051 28.3141C8.52647 28.2174 8.2803 28.1128 8.04198 28.0004C7.53902 27.7631 7.07106 27.4907 6.63819 27.1833C5.82474 26.5938 5.1763 25.904 4.69295 25.1141C4.20957 24.3123 3.96789 23.4458 3.96789 22.5143C3.96789 22.0073 4.05041 21.5357 4.21547 21.0995C4.38052 20.6633 4.63398 20.2919 4.97589 19.9853C5.32958 19.6788 5.77166 19.4371 6.3022 19.2602C6.76514 19.1059 7.30889 19.0189 7.93341 18.9993C8.02459 18.9964 8.11747 18.995 8.21209 18.995C8.90871 18.995 9.66961 19.0967 10.4947 19.3002L10.4974 19.3008C10.5372 19.3106 10.5771 19.3207 10.6171 19.331C11.4896 19.555 12.3856 19.9264 13.3051 20.4451C13.3982 20.4976 13.4912 20.5517 13.5844 20.6075L13.5884 20.6099C14.4147 21.1047 15.2457 21.7277 16.0816 22.479C16.1738 22.5619 16.2657 22.6467 16.3572 22.7334C17.1889 23.5212 17.9871 24.4622 18.7519 25.5562L18.7524 25.5558L19.5123 25.0256L19.5118 25.025C19.2923 24.7143 19.067 24.4118 18.8358 24.1176C18.2603 23.3848 17.6487 22.703 17.0011 22.0722C16.9024 21.976 16.8028 21.8813 16.7024 21.7882C15.8796 21.0253 15.0007 20.3654 14.0655 19.8085C13.9656 19.7483 13.865 19.6894 13.764 19.6318C12.8417 19.1063 11.8738 18.6902 10.8604 18.3835C10.849 18.38 10.8376 18.3766 10.8262 18.3732C10.8096 18.3682 10.7929 18.3632 10.7763 18.3583C9.94641 18.1101 9.09168 17.9521 8.21209 17.884C8.12513 17.8772 8.03791 17.8714 7.95042 17.8665C7.70358 17.8524 7.45481 17.8454 7.20408 17.8454C6.54387 17.8454 5.90136 17.928 5.27654 18.093C4.65167 18.2463 4.09167 18.5057 3.59652 18.8712C3.11315 19.2367 2.7241 19.7201 2.42936 20.3214C2.13462 20.9226 1.98726 21.6713 1.98726 22.5674C1.98726 23.5224 2.25841 24.4479 2.80073 25.344C3.34304 26.2283 4.09167 27.0123 5.04663 27.6962C5.78761 28.2268 6.63864 28.6758 7.59972 29.0431C7.8772 29.1492 8.16384 29.2484 8.45965 29.3409C8.61305 29.3888 8.76806 29.434 8.92463 29.4764C8.78553 29.755 8.70725 30.0694 8.70725 30.402C8.70725 30.4661 8.71015 30.5295 8.71585 30.5921C8.51586 30.5394 8.31795 30.4824 8.12208 30.4212C6.70663 29.9789 5.45619 29.3815 4.38771 28.6164C3.3261 27.8562 2.46706 26.9648 1.83595 25.9358L1.83421 25.9329L1.83248 25.9301C1.19387 24.8749 0.855469 23.7488 0.855469 22.5674C0.855469 21.5543 1.02116 20.6228 1.4131 19.8231C1.77754 19.0797 2.27486 18.4516 2.91393 17.9683L2.91914 17.9644L2.9244 17.9605C3.5427 17.5041 4.23744 17.1838 4.99702 16.9962C5.71522 16.8073 6.45178 16.7135 7.20408 16.7135C8.54721 16.7135 9.847 16.8992 11.0992 17.2735C12.3456 17.6425 13.5288 18.1642 14.6469 18.8373C15.7744 19.5091 16.8225 20.3181 17.7908 21.2614C17.9152 21.3826 18.0383 21.5055 18.1601 21.6301L18.5161 22.2477L18.3359 21.8122C19.0868 22.5992 19.787 23.453 20.4367 24.3726L20.7832 24.8631C20.9649 24.7007 21.1418 24.5331 21.3141 24.3603ZM25.2845 18.0872C25.7049 17.0075 26.05 15.9431 26.3208 14.8937C26.593 13.8276 26.7898 12.8018 26.913 11.8158L26.9137 11.8103L26.9144 11.805C27.0504 10.7963 27.1165 9.88075 27.1165 9.05577C27.1165 7.97857 27.0162 7.07097 26.8311 6.32024L26.8289 6.31149L26.8269 6.3027C26.6433 5.50353 26.4114 4.89028 26.1515 4.43554L26.1491 4.43128L26.1467 4.42701C25.8792 3.94929 25.6054 3.65729 25.3511 3.48541L25.3364 3.4755L25.3221 3.46514C25.051 3.26935 24.8475 3.21961 24.6938 3.21961C24.2869 3.21961 23.8028 3.3651 23.2238 3.77333C22.6628 4.16872 22.1078 4.77525 21.5776 5.64388C21.0692 6.49591 20.6344 7.57386 20.2892 8.89897C19.9528 10.1905 19.7775 11.6837 19.7775 13.3887C19.7775 14.6406 19.8892 15.7378 20.1021 16.688C20.3338 17.6574 20.6199 18.4804 20.9521 19.1671C21.3083 19.8784 21.6774 20.4492 22.0525 20.8944C22.4689 21.3743 22.8405 21.7136 23.1642 21.9384L23.2353 21.9877C23.4227 21.7099 23.6027 21.4266 23.7753 21.1378L23.7773 21.1345C24.3698 20.1507 24.8719 19.1351 25.2845 18.0872ZM5.72438 20.8344C5.52319 21.0167 5.37481 21.2337 5.27401 21.5001C5.16143 21.7976 5.09967 22.1323 5.09967 22.5143C5.09967 23.2375 5.28397 23.9011 5.66025 24.5265C6.05826 25.1759 6.59831 25.7558 7.29795 26.2636C8.00267 26.7633 8.82835 27.1663 9.78618 27.4643C10.7341 27.7592 11.7287 27.9084 12.7746 27.9084C14.0885 27.9084 15.2744 27.7333 16.341 27.3953L16.344 27.3943C16.9811 27.1945 17.5824 26.9526 18.1489 26.6692L17.8243 26.2047C17.0162 25.0486 16.1817 24.0908 15.325 23.3208C14.444 22.529 13.585 21.9025 12.7491 21.431C11.9014 20.9528 11.0973 20.6228 10.3357 20.4273C9.53485 20.2216 8.82914 20.1268 8.21209 20.1268C7.55358 20.1268 7.04439 20.2059 6.66011 20.334C6.24806 20.4714 5.94561 20.6446 5.72438 20.8344Z" fill="white"/>
<path fill-rule="evenodd" clip-rule="evenodd" d="M19.0928 20.7674C19.812 21.7224 20.7964 22.6302 22.046 23.4909L22.5235 22.8719C22.0991 22.5771 21.657 22.1645 21.1972 21.6339C20.7492 21.1034 20.3307 20.449 19.9416 19.6709C19.5644 18.8927 19.252 17.9849 19.0044 16.9473C18.7686 15.898 18.6507 14.7131 18.6507 13.3926C18.6507 11.6123 18.8334 10.0206 19.1989 8.6175C19.5644 7.21448 20.0359 6.02957 20.6137 5.06277C21.2031 4.09597 21.8574 3.35907 22.5766 2.85209C23.2958 2.34511 24.0031 2.09162 24.6987 2.09162C25.1349 2.09162 25.5652 2.24489 25.9896 2.55144C26.4258 2.8462 26.809 3.28833 27.1391 3.87786C27.4692 4.45556 27.7345 5.18067 27.9349 6.05315C28.1471 6.91382 28.2532 7.91601 28.2532 9.05964C28.2532 9.94393 28.1825 10.9107 28.041 11.96C27.9113 12.9976 27.705 14.0705 27.422 15.1788C27.1391 16.2753 26.7795 17.3836 26.3433 18.5036C25.9071 19.6119 25.3766 20.6848 24.7517 21.7224C24.1387 22.7481 23.4372 23.709 22.6473 24.6051C21.8574 25.4894 20.9673 26.2616 19.977 26.9219C18.9867 27.5821 17.8903 28.1009 16.6877 28.4782C15.497 28.8555 14.1943 29.0441 12.7796 29.0441C12.6343 29.0441 12.4898 29.0415 12.3459 29.0363C12.5743 29.2961 12.7388 29.6134 12.8149 29.9637C14.5817 29.9604 16.2323 29.7069 17.7665 29.2033C19.3227 28.7081 20.7433 28.0125 22.0284 27.1164C23.3252 26.2085 24.4806 25.1356 25.4945 23.8977C26.5084 22.6597 27.3631 21.3038 28.0587 19.83C28.7661 18.3445 29.3025 16.7763 29.668 15.1257C30.0334 13.4633 30.2162 11.7655 30.2162 10.0323C30.2162 8.72363 30.0747 7.52691 29.7917 6.44221C29.5206 5.34574 29.1374 4.4084 28.6423 3.63025C28.1589 2.8403 27.5812 2.23311 26.9092 1.80866C26.2372 1.37241 25.5004 1.1543 24.6987 1.1543C24.1681 1.1543 23.5964 1.25451 22.9833 1.45495C22.3821 1.65538 21.7808 1.96193 21.1795 2.37459C20.5783 2.78724 20.0006 3.30601 19.4465 3.93091C18.9042 4.55577 18.4208 5.29269 17.9964 6.14159C17.5837 6.97868 17.2478 7.9337 16.9884 9.0066C16.7408 10.0677 16.617 11.2467 16.617 12.5437C16.617 13.3101 16.6642 14.1471 16.7585 15.055C16.8646 15.9628 17.1004 16.9002 17.4658 17.867C17.8313 18.8338 18.3737 19.8006 19.0928 20.7674ZM8.92956 29.4802C9.10616 29.1264 9.38084 28.8302 9.71796 28.6271C9.62999 28.6022 9.54227 28.5761 9.4549 28.5489C8.39388 28.2188 7.45661 27.7649 6.64312 27.1872C5.82967 26.5976 5.18123 25.9079 4.69788 25.118C4.2145 24.3162 3.97282 23.4497 3.97282 22.5182C3.97282 22.0112 4.05534 21.5396 4.2204 21.1034C4.38545 20.6672 4.63891 20.2958 4.98083 19.9892C5.33451 19.6827 5.77659 19.441 6.30713 19.2641C6.83768 19.0872 7.47427 18.9988 8.21702 18.9988C8.94797 18.9988 9.74965 19.1109 10.6221 19.3349C11.4945 19.5588 12.3905 19.9302 13.3101 20.449C14.2296 20.9678 15.1551 21.6457 16.0865 22.4828C17.0178 23.32 17.908 24.3457 18.7568 25.5601L19.5172 25.0295C18.7509 23.9448 17.9138 22.9604 17.0061 22.0761C16.0983 21.1918 15.1198 20.4372 14.0705 19.8123C13.033 19.1875 11.9366 18.7041 10.7812 18.3622C9.63764 18.0202 8.44693 17.8493 7.20901 17.8493C6.54881 17.8493 5.90629 17.9318 5.28147 18.0969C4.65661 18.2501 4.0966 18.5095 3.60145 18.875C3.11808 19.2405 2.72903 19.7239 2.43429 20.3252C2.13955 20.9265 1.99219 21.6752 1.99219 22.5713C1.99219 23.5263 2.26335 24.4518 2.80566 25.3479C3.34798 26.2322 4.0966 27.0162 5.05156 27.7C6.00649 28.3839 7.14416 28.9321 8.46458 29.3448C8.61798 29.3927 8.773 29.4379 8.92956 29.4802Z" fill="white"/>
<path d="M43.1523 28.1458V5.07129H47.3714V28.1458H43.1523ZM51.7446 28.1458V11.7958H55.4693L55.7989 14.5648C56.3043 13.5979 57.0294 12.8287 57.9743 12.2573C58.9412 11.686 60.0729 11.4003 61.3693 11.4003C63.391 11.4003 64.9621 12.0376 66.0825 13.3122C67.2032 14.5868 67.7635 16.4547 67.7635 18.916V28.1458H63.5448V19.3115C63.5448 17.9051 63.2591 16.8283 62.6878 16.0811C62.1165 15.3339 61.2265 14.9603 60.0179 14.9603C58.8313 14.9603 57.8535 15.3779 57.0844 16.213C56.3372 17.048 55.9637 18.2127 55.9637 19.7071V28.1458H51.7446ZM78.5553 28.5413C77.105 28.5413 75.8305 28.3106 74.7317 27.8491C73.633 27.3656 72.7541 26.7063 72.0948 25.8713C71.4356 25.0362 71.0401 24.0693 70.9082 22.9705H75.1602C75.2921 23.6078 75.6437 24.1572 76.215 24.6187C76.8083 25.0582 77.5664 25.2779 78.4893 25.2779C79.4123 25.2779 80.0825 25.0911 80.5 24.7176C80.9395 24.344 81.1592 23.9154 81.1592 23.432C81.1592 22.7288 80.8516 22.2563 80.2363 22.0145C79.621 21.7508 78.764 21.4981 77.6653 21.2564C76.9621 21.1026 76.248 20.9158 75.5228 20.696C74.7977 20.4762 74.1275 20.2015 73.5122 19.8719C72.9189 19.5203 72.4354 19.0808 72.0619 18.5534C71.6883 18.004 71.5015 17.3337 71.5015 16.5426C71.5015 15.0922 72.0729 13.8726 73.2155 12.8836C74.3802 11.8947 76.0062 11.4003 78.0938 11.4003C80.0275 11.4003 81.5657 11.8508 82.7084 12.7518C83.873 13.6528 84.5652 14.8944 84.785 16.4767H80.7966C80.5549 15.268 79.643 14.6637 78.0608 14.6637C77.2698 14.6637 76.6545 14.8175 76.215 15.1252C75.7975 15.4328 75.5887 15.8174 75.5887 16.2789C75.5887 16.7624 75.9074 17.1469 76.5446 17.4326C77.1819 17.7183 78.0279 17.982 79.0826 18.2237C80.2253 18.4874 81.2691 18.7841 82.214 19.1138C83.1808 19.4214 83.9499 19.8939 84.5213 20.5312C85.0926 21.1465 85.3783 22.0365 85.3783 23.2012C85.4002 24.2121 85.1366 25.1241 84.5872 25.9372C84.0378 26.7503 83.2468 27.3876 82.214 27.8491C81.1812 28.3106 79.9616 28.5413 78.5553 28.5413ZM95.885 28.1458C94.1711 28.1458 92.7977 27.7282 91.7649 26.8931C90.7321 26.0581 90.2157 24.5747 90.2157 22.4431V15.3229H87.414V11.7958H90.2157L90.7101 7.4117H94.4347V11.7958H98.8516V15.3229H94.4347V22.476C94.4347 23.2672 94.5996 23.8165 94.9292 24.1242C95.2808 24.4099 95.8741 24.5527 96.7091 24.5527H98.7527V28.1458H95.885ZM108.111 28.5413C106.704 28.5413 105.551 28.3216 104.65 27.882C103.749 27.4206 103.079 26.8162 102.639 26.0691C102.2 25.3219 101.98 24.4978 101.98 23.5968C101.98 22.0805 102.573 20.8498 103.76 19.9049C104.946 18.9599 106.726 18.4874 109.099 18.4874H113.253V18.0919C113.253 16.9711 112.934 16.147 112.297 15.6196C111.659 15.0922 110.868 14.8285 109.924 14.8285C109.067 14.8285 108.319 15.0373 107.682 15.4548C107.045 15.8504 106.649 16.4437 106.496 17.2348H102.375C102.485 16.0481 102.881 15.0153 103.562 14.1363C104.265 13.2572 105.166 12.587 106.265 12.1255C107.364 11.642 108.594 11.4003 109.956 11.4003C112.286 11.4003 114.121 11.9826 115.461 13.1474C116.801 14.3121 117.472 15.9602 117.472 18.0919V28.1458H113.879L113.483 25.5087C113 26.3877 112.319 27.1129 111.44 27.6843C110.583 28.2556 109.473 28.5413 108.111 28.5413ZM109.067 25.245C110.275 25.245 111.209 24.8494 111.868 24.0583C112.549 23.2672 112.978 22.2892 113.154 21.1245H109.561C108.44 21.1245 107.638 21.3333 107.155 21.7508C106.671 22.1464 106.43 22.6408 106.43 23.2342C106.43 23.8715 106.671 24.3659 107.155 24.7176C107.638 25.0692 108.275 25.245 109.067 25.245ZM128.737 28.5125C127.168 28.5125 125.782 28.2476 124.581 27.7179C123.379 27.1678 122.431 26.3936 121.739 25.3954C121.046 24.3767 120.69 23.1441 120.669 21.6976H124.795C124.835 22.6959 125.192 23.5414 125.864 24.2341C126.557 24.9064 127.504 25.2426 128.706 25.2426C129.745 25.2426 130.57 24.9981 131.181 24.5091C131.792 23.9998 132.098 23.3275 132.098 22.4922C132.098 21.6161 131.823 20.9336 131.273 20.4447C130.743 19.9557 130.03 19.5584 129.134 19.2528C128.237 18.9472 127.28 18.6213 126.261 18.2749C124.611 17.7045 123.348 16.971 122.472 16.0746C121.617 15.1781 121.189 13.9863 121.189 12.4991C121.168 11.2359 121.464 10.1562 122.075 9.25972C122.706 8.34292 123.562 7.64004 124.642 7.15108C125.721 6.64176 126.964 6.38708 128.37 6.38708C129.796 6.38708 131.049 6.64176 132.128 7.15108C133.229 7.6604 134.084 8.37348 134.695 9.29028C135.327 10.2071 135.663 11.297 135.704 12.5602H131.517C131.497 11.8064 131.201 11.1442 130.631 10.5738C130.081 9.98296 129.307 9.68756 128.309 9.68756C127.453 9.66719 126.73 9.88111 126.139 10.3293C125.568 10.7572 125.283 11.3887 125.283 12.224C125.283 12.9371 125.507 13.5075 125.956 13.9354C126.404 14.3429 127.015 14.6892 127.789 14.9744C128.563 15.2597 129.449 15.5653 130.448 15.8912C131.507 16.2579 132.475 16.6858 133.351 17.1747C134.227 17.6637 134.93 18.3157 135.459 19.1306C135.989 19.9251 136.254 20.954 136.254 22.2171C136.254 23.3377 135.968 24.3767 135.398 25.3342C134.828 26.2918 133.982 27.066 132.862 27.6568C131.741 28.2272 130.366 28.5125 128.737 28.5125ZM139.575 28.1458V6.1426H143.486V15.3106C143.996 14.4753 144.678 13.8233 145.533 13.3547C146.41 12.8658 147.408 12.6213 148.528 12.6213C150.402 12.6213 151.849 13.2121 152.867 14.3938C153.906 15.5754 154.426 17.3072 154.426 19.589V28.1458H150.545V19.9557C150.545 18.6518 150.28 17.6535 149.75 16.9608C149.241 16.2681 148.426 15.9218 147.306 15.9218C146.206 15.9218 145.289 16.3089 144.556 17.0831C143.843 17.8573 143.486 18.937 143.486 20.3224V28.1458H139.575ZM165.439 28.5125C163.972 28.5125 162.648 28.1763 161.467 27.504C160.305 26.8317 159.378 25.9047 158.686 24.723C158.013 23.521 157.677 22.1356 157.677 20.5669C157.677 18.9981 158.023 17.6229 158.716 16.4413C159.409 15.2393 160.336 14.3021 161.497 13.6298C162.679 12.9575 164.003 12.6213 165.47 12.6213C166.916 12.6213 168.22 12.9575 169.381 13.6298C170.562 14.3021 171.49 15.2393 172.162 16.4413C172.854 17.6229 173.201 18.9981 173.201 20.5669C173.201 22.1356 172.854 23.521 172.162 24.723C171.49 25.9047 170.562 26.8317 169.381 27.504C168.199 28.1763 166.885 28.5125 165.439 28.5125ZM165.439 25.1203C166.457 25.1203 167.344 24.7434 168.098 23.9896C168.851 23.2154 169.228 22.0745 169.228 20.5669C169.228 19.0593 168.851 17.9285 168.098 17.1747C167.344 16.4005 166.468 16.0135 165.47 16.0135C164.431 16.0135 163.534 16.4005 162.78 17.1747C162.047 17.9285 161.68 19.0593 161.68 20.5669C161.68 22.0745 162.047 23.2154 162.78 23.9896C163.534 24.7434 164.42 25.1203 165.439 25.1203ZM176.698 34.8689V12.988H180.181L180.609 15.1578C181.098 14.4855 181.74 13.8946 182.534 13.3853C183.349 12.876 184.398 12.6213 185.682 12.6213C187.108 12.6213 188.381 12.9677 189.502 13.6603C190.622 14.353 191.508 15.3004 192.16 16.5024C192.812 17.7045 193.138 19.0695 193.138 20.5975C193.138 22.1254 192.812 23.4904 192.16 24.6925C191.508 25.8741 190.622 26.8113 189.502 27.504C188.381 28.1763 187.108 28.5125 185.682 28.5125C184.541 28.5125 183.543 28.2986 182.687 27.8707C181.831 27.4429 181.139 26.8419 180.609 26.0677V34.8689H176.698ZM184.857 25.0898C186.1 25.0898 187.128 24.6721 187.943 23.8368C188.758 23.0015 189.165 21.9217 189.165 20.5975C189.165 19.2732 188.758 18.1832 187.943 17.3275C187.128 16.4719 186.1 16.044 184.857 16.044C183.594 16.044 182.555 16.4719 181.74 17.3275C180.945 18.1629 180.548 19.2426 180.548 20.5669C180.548 21.8912 180.945 22.9811 181.74 23.8368C182.555 24.6721 183.594 25.0898 184.857 25.0898Z" fill="white"/>
</svg>
